# xmcd
#
# Track frame offsets:
#	193
#	16042
#	41159
#	60800
#	86052
#	116765
#	131437
#	151409
#	183789
#	200233
#	231598
#	248460
#	267221
#	281529
#	297390
#
# Disc length: 4266 seconds
#
# Revision: 5
# Processed by: cddbd v1.5.2PL0 Copyright (c) Steve Scherf et al.
# Submitted via: EZCDAudioConverter 1.3.4.1
#
DISCID=d010a80f
DTITLE=Peter Tosh - Equal Rights 2/2
DYEAR=1977
DGENRE=
TTITLE0=Get Up, Stand Up [Alternate Version]
TTITLE1=Dub-Presser Man [Dub Version]
TTITLE2=I Am That I Am [ShaJahShoka Dub Plate]
TTITLE3=Heavy Razor [ShaJahShoka Dub Plate]
TTITLE4=Equal Rights [Extended Version]
TTITLE5=African [London Sound System Dub Plate]
TTITLE6=Jah Guide [Dub Plate]
TTITLE7=(Fight) Apartheid [Alternate Version]
TTITLE8=Vampire [Demo]
TTITLE9=Jah Man Inna Jamdung [Demo]
TTITLE10=Hammer [ShaJahShoka Dub Plate]
TTITLE11=Blame The Yout [Dub Version]
TTITLE12=Babylon Queendom [Dub Version]
TTITLE13=Vampires [Dub Version]
TTITLE14=Get Up, Stand Up [Extended Alternate Version]
EXTD=
EXTT0=
EXTT1=
EXTT2=
EXTT3=
EXTT4=
EXTT5=
EXTT6=
EXTT7=
EXTT8=
EXTT9=
EXTT10=
EXTT11=
EXTT12=
EXTT13=
EXTT14=
PLAYORDER=
